<svg width="26" height="27" viewBox="0 0 26 27" fill="none" xmlns="http://www.w3.org/2000/svg">
<g clip-path="url(#clip0_28_2527)">
<path d="M6.73013 16.7159L4.91901 22.3298H8.54124L6.73013 16.7159Z" fill="white"/>
<path d="M8.96609 14.2166L13.2865 27H16.3706C14.5652 26.4493 13.6225 25.2904 13.2882 23.6168L15.8938 22.7215C16.2449 24.0829 17.1689 24.717 19.2018 24.717C21.2347 24.717 21.7336 24.4746 21.7336 23.4301C21.7336 22.0127 20.2184 21.9008 18.1487 21.677C15.2659 21.3598 13.5473 20.0357 13.5473 17.9655C13.5473 15.3171 15.5431 13.8809 19.0542 13.8809C21.8629 13.8809 23.8033 14.9999 24.3763 17.0888L21.7891 17.984C21.5489 16.8835 20.7173 16.4733 18.9803 16.4733C16.7257 16.4733 16.3747 17.1633 16.3747 17.9466C16.3747 18.6555 16.6703 19.0471 19.0542 19.271C22.7686 19.6252 24.7644 21.08 24.7644 23.3927C24.7644 25.1912 23.6929 26.4261 21.892 26.9997H24.5023C25.3603 26.9997 26.0428 26.274 25.9981 25.4095C25.5658 17.037 25.1286 8.66502 24.6598 0.294448V0.289462C24.6417 -0.00941788 24.2559 -0.107475 24.0898 0.140714C24.0797 0.155949 24.0689 0.170907 24.0577 0.18448C22.9324 1.56919 21.8009 2.94919 20.7058 4.35799C20.3424 4.82556 19.9373 4.97487 19.3585 4.97182C15.0856 4.94855 10.8126 4.94744 6.53966 4.97182C5.94547 4.97514 5.57825 4.77016 5.22229 4.30703C4.21999 3.00376 3.16883 1.73843 2.13167 0.462031C2.04687 0.357603 1.95685 0.25733 1.84926 0.140991C1.66565 -0.0576154 1.33466 0.0620473 1.31847 0.333227C0.986384 5.90364 0.36914 11.5583 0.36914 17.1367C0.214897 19.9219 0.166045 22.7475 0.00247086 25.5499C-0.0189364 25.9156 0.104018 26.2546 0.320013 26.5128L4.47577 14.2166H8.96637H8.96609Z" fill="white"/>
<path d="M4.08743 24.8663L3.40733 27H10.0527L9.35417 24.8663H4.08743Z" fill="white"/>
</g>
<defs>
<clipPath id="clip0_28_2527">
<rect width="26" height="27" fill="white"/>
</clipPath>
</defs>
</svg>
